# xmcd
#
# Track frame offsets:
#	150
#	15189
#	30340
#	49065
#	62270
#	83190
#	95516
#	109191
#	127985
#	145094
#	160450
#	179004
#
# Disc length: 2657 seconds
#
# Revision: 0
# Processed by: cddbd v1.5.2PL0 Copyright (c) Steve Scherf et al.
# Submitted via: dBpowerAMP V4.0
#
DISCID=900a5f0c
DTITLE=Brad Paisley - Who Needs Pictures
DYEAR=1999
DGENRE=Country
TTITLE0=Long Sermon
TTITLE1=Me Neither
TTITLE2=Who Needs Pictures
TTITLE3=Don't Breathe
TTITLE4=He Didn't Have To Be
TTITLE5=It Never Woulda Worked Out Anyway
TTITLE6=Holdin' On to You
TTITLE7=I've Been Better
TTITLE8=We Danced
TTITLE9=Sleepin' On The Foldout
TTITLE10=Cloud Of Dust
TTITLE11=In The Garden 
EXTD=
EXTT0=
EXTT1=
EXTT2=
EXTT3=
EXTT4=
EXTT5=
EXTT6=
EXTT7=
EXTT8=
EXTT9=
EXTT10=
EXTT11=
PLAYORDER=
